<svg width="37" height="44" viewBox="0 0 37 44" fill="none" xmlns="http://www.w3.org/2000/svg">
<path fill-rule="evenodd" clip-rule="evenodd" d="M6.2915 39.8658V40.7066C6.2915 42.444 4.8831 43.8524 3.14575 43.8524C1.4084 43.8524 0 42.4296 0 40.6923C0 38.9391 1.42127 37.5034 3.1745 37.5034H4.19433C5.63576 37.4019 6.73811 35.7673 7.27336 34.6222C7.43002 34.287 7.48988 33.918 7.48988 33.5481C7.48988 31.8183 6.03697 30.5068 4.41488 29.9061C1.20358 28.7169 0.118048 25.7349 0 24.0671V11.9597C0.119838 3.69127 6.59491 0 10.1065 0H25.3158C33.8243 0.118121 36.6505 7.43177 37 11.0738V23.4765C37 26.5401 35.0019 28.3865 32.9016 29.4045C31.0772 30.2888 29.5101 31.9435 29.5101 33.9709V34.1074C29.5101 36.128 31.3719 37.1831 32.5812 37.553C32.8275 37.6283 33.0853 37.651 33.3429 37.651H33.8993C35.6118 37.651 37 39.0392 37 40.7517C37 42.4641 35.6118 43.8524 33.8993 43.8524H33.7045C31.8844 43.8524 30.4089 42.3769 30.4089 40.5568V39.7181C30.4089 37.5034 28.9851 36.4698 25.5231 36.4698C23.675 36.4698 21.7206 38.016 21.7206 39.7181V40.7045C21.7206 42.5245 20.2214 44 18.4013 44C16.6073 44 15.1296 42.5457 15.1296 40.7517C15.1296 38.9577 16.5839 37.5034 18.3779 37.5034H18.8745C21.3056 37.5034 22.3516 35.6806 22.7156 33.7159C23.0776 31.7616 21.2947 30.2685 19.3072 30.2685H17.0318C15.3194 30.2685 13.9312 31.6567 13.9312 33.3691C13.9312 35.0816 12.543 36.4698 10.8305 36.4698H9.43725C7.48988 36.4698 6.2915 38.984 6.2915 39.8658ZM23.1259 17.4238H29.2926V23.9359H23.1259V17.4238ZM13.6184 17.3347H7.4517V23.8468H13.6184V17.3347Z" fill="white"/>
</svg>
