<svg width="18" height="13" viewBox="0 0 18 13" fill="none" xmlns="http://www.w3.org/2000/svg">
<path d="M17.7363 11.8898C17.8199 11.9502 17.8862 12.0219 17.9315 12.1008C17.9767 12.1797 18 12.2643 18 12.3497C18 12.4351 17.9767 12.5196 17.9315 12.5985C17.8862 12.6774 17.8199 12.7491 17.7363 12.8095C17.6526 12.8699 17.5534 12.9178 17.4441 12.9505C17.3349 12.9832 17.2178 13 17.0995 13C16.9813 13 16.8642 12.9832 16.755 12.9505C16.6457 12.9178 16.5464 12.8699 16.4628 12.8095L9 7.41889L1.53716 12.8095C1.3683 12.9315 1.13926 13 0.90045 13C0.661636 13 0.432603 12.9315 0.263736 12.8095C0.0948685 12.6876 4.7076e-09 12.5222 0 12.3497C-4.7076e-09 12.1772 0.0948685 12.0118 0.263736 11.8898L7.72769 6.5L0.263736 1.11017C0.0948685 0.988215 -1.7793e-09 0.822802 0 0.650325C1.7793e-09 0.477848 0.0948685 0.312435 0.263736 0.190476C0.432603 0.0685162 0.661636 1.28505e-09 0.90045 0C1.13926 -1.28505e-09 1.3683 0.0685162 1.53716 0.190476L9 5.58111L16.4628 0.190476C16.6317 0.0685162 16.8607 -3.39993e-09 17.0995 0C17.3384 3.39993e-09 17.5674 0.0685162 17.7363 0.190476C17.9051 0.312435 18 0.477848 18 0.650325C18 0.822802 17.9051 0.988215 17.7363 1.11017L10.2723 6.5L17.7363 11.8898Z" fill="black"/>
</svg>
