<svg width="27" height="23" viewBox="0 0 27 23" fill="none" xmlns="http://www.w3.org/2000/svg">
<path d="M15.3728 10.9188L18.0207 8.27084M10.9165 12.7917C10.9165 13.4768 11.1887 14.1339 11.6731 14.6184C12.1576 15.1028 12.8147 15.375 13.4998 15.375C14.185 15.375 14.8421 15.1028 15.3265 14.6184C15.811 14.1339 16.0832 13.4768 16.0832 12.7917C16.0832 12.1065 15.811 11.4494 15.3265 10.965C14.8421 10.4805 14.185 10.2083 13.4998 10.2083C12.8147 10.2083 12.1576 10.4805 11.6731 10.965C11.1887 11.4494 10.9165 12.1065 10.9165 12.7917Z" stroke="black" stroke-width="2" stroke-linecap="round" stroke-linejoin="round"/>
<path d="M6.26667 21.8333C4.37844 20.3325 3.0038 18.2815 2.33326 15.9646C1.66271 13.6477 1.72946 11.1795 2.52425 8.90221C3.31904 6.6249 4.80253 4.6512 6.76911 3.25464C8.73569 1.85808 11.088 1.10781 13.5 1.10781C15.912 1.10781 18.2643 1.85808 20.2309 3.25464C22.1975 4.6512 23.681 6.6249 24.4757 8.90221C25.2705 11.1795 25.3373 13.6477 24.6667 15.9646C23.9962 18.2815 22.6216 20.3325 20.7333 21.8333H6.26667Z" stroke="black" stroke-width="2" stroke-linecap="round" stroke-linejoin="round"/>
</svg>
