<svg width="24" height="23" viewBox="0 0 24 23" fill="none" xmlns="http://www.w3.org/2000/svg">
<path d="M13.1668 5.875H10.8335V10.375H6.16683V12.625H10.8335V17.125H13.1668V12.625H17.8335V10.375H13.1668V5.875ZM12.0002 0.25C5.57183 0.25 0.333496 5.30125 0.333496 11.5C0.333496 17.6987 5.57183 22.75 12.0002 22.75C18.4285 22.75 23.6668 17.6987 23.6668 11.5C23.6668 5.30125 18.4285 0.25 12.0002 0.25ZM12.0002 20.5C6.85516 20.5 2.66683 16.4613 2.66683 11.5C2.66683 6.53875 6.85516 2.5 12.0002 2.5C17.1452 2.5 21.3335 6.53875 21.3335 11.5C21.3335 16.4613 17.1452 20.5 12.0002 20.5Z" fill="black"/>
</svg>
