<svg width="24" height="30" viewBox="0 0 24 30" fill="none" xmlns="http://www.w3.org/2000/svg">
<g opacity="0.9" clip-path="url(#clip0_556_126)">
<path d="M21.75 0.800003H6.75C5.50734 0.800003 4.5 2.00882 4.5 3.5V6.2H2.25C1.00734 6.2 0 7.40882 0 8.9V26.9C0 28.3912 1.00734 29.6 2.25 29.6H17.25C18.4927 29.6 19.5 28.3912 19.5 26.9V24.2H21.75C22.9927 24.2 24 22.9912 24 21.5V3.5C24 2.00882 22.9927 0.800003 21.75 0.800003ZM16.9688 26.9H2.53125C2.45666 26.9 2.38512 26.8644 2.33238 26.8012C2.27963 26.7379 2.25 26.652 2.25 26.5625V9.2375C2.25 9.14799 2.27963 9.06215 2.33238 8.99885C2.38512 8.93556 2.45666 8.9 2.53125 8.9H4.5V21.5C4.5 22.9912 5.50734 24.2 6.75 24.2H17.25V26.5625C17.25 26.652 17.2204 26.7379 17.1676 26.8012C17.1149 26.8644 17.0433 26.9 16.9688 26.9ZM21.4688 21.5H7.03125C6.95666 21.5 6.88512 21.4644 6.83238 21.4012C6.77963 21.3379 6.75 21.252 6.75 21.1625V3.8375C6.75 3.74799 6.77963 3.66215 6.83238 3.59885C6.88512 3.53556 6.95666 3.5 7.03125 3.5H21.4688C21.5433 3.5 21.6149 3.53556 21.6676 3.59885C21.7204 3.66215 21.75 3.74799 21.75 3.8375V21.1625C21.75 21.252 21.7204 21.3379 21.6676 21.4012C21.6149 21.4644 21.5433 21.5 21.4688 21.5Z" fill="black"/>
</g>
<defs>
<clipPath id="clip0_556_126">
<rect width="24" height="28.8" fill="white" transform="translate(0 0.800003)"/>
</clipPath>
</defs>
</svg>
