<svg width="25" height="25" viewBox="0 0 25 25" fill="none" xmlns="http://www.w3.org/2000/svg">
<path d="M1.625 4.04167C1.625 3.40073 1.87961 2.78604 2.33283 2.33283C2.78604 1.87961 3.40073 1.625 4.04167 1.625H20.9583C21.5993 1.625 22.214 1.87961 22.6672 2.33283C23.1204 2.78604 23.375 3.40073 23.375 4.04167V20.9583C23.375 21.5993 23.1204 22.214 22.6672 22.6672C22.214 23.1204 21.5993 23.375 20.9583 23.375H4.04167C3.40073 23.375 2.78604 23.1204 2.33283 22.6672C1.87961 22.214 1.625 21.5993 1.625 20.9583V4.04167Z" stroke="black" stroke-width="2" stroke-linecap="round" stroke-linejoin="round"/>
<path d="M10.0835 7.66666V17.3333H12.5002C13.1411 17.3333 13.7558 17.0787 14.209 16.6255C14.6622 16.1723 14.9168 15.5576 14.9168 14.9167V10.0833C14.9168 9.44239 14.6622 8.8277 14.209 8.37449C13.7558 7.92128 13.1411 7.66666 12.5002 7.66666H10.0835Z" stroke="black" stroke-width="2" stroke-linecap="round" stroke-linejoin="round"/>
</svg>
