<svg width="41" height="41" viewBox="0 0 41 41" fill="none" xmlns="http://www.w3.org/2000/svg">
<path d="M20.3125 0C16.2951 0 12.3679 1.19131 9.02749 3.42327C5.68712 5.65524 3.08361 8.82762 1.54621 12.5392C0.00880109 16.2509 -0.393454 20.335 0.390308 24.2753C1.17407 28.2155 3.10865 31.8349 5.9494 34.6756C8.79016 37.5164 12.4095 39.4509 16.3497 40.2347C20.29 41.0185 24.3741 40.6162 28.0858 39.0788C31.7974 37.5414 34.9698 34.9379 37.2017 31.5975C39.4337 28.2571 40.625 24.3299 40.625 20.3125C40.6193 14.927 38.4774 9.76377 34.6693 5.95567C30.8612 2.14757 25.698 0.00568715 20.3125 0ZM20.3125 37.5C16.9131 37.5 13.5901 36.492 10.7636 34.6034C7.93718 32.7148 5.73421 30.0305 4.43333 26.8899C3.13245 23.7493 2.79208 20.2934 3.45526 16.9594C4.11845 13.6253 5.7554 10.5628 8.15911 8.1591C10.5628 5.75539 13.6253 4.11844 16.9594 3.45525C20.2934 2.79207 23.7493 3.13244 26.8899 4.43332C30.0305 5.7342 32.7148 7.93717 34.6034 10.7636C36.492 13.5901 37.5 16.9131 37.5 20.3125C37.4948 24.8693 35.6824 29.238 32.4602 32.4602C29.238 35.6824 24.8693 37.4948 20.3125 37.5ZM27.668 20.7695C27.8133 20.9146 27.9285 21.087 28.0071 21.2767C28.0858 21.4663 28.1262 21.6697 28.1262 21.875C28.1262 22.0803 28.0858 22.2837 28.0071 22.4733C27.9285 22.663 27.8133 22.8354 27.668 22.9805L21.418 29.2305C21.2729 29.3757 21.1005 29.491 20.9109 29.5696C20.7212 29.6483 20.5178 29.6887 20.3125 29.6887C20.1072 29.6887 19.9038 29.6483 19.7142 29.5696C19.5245 29.491 19.3522 29.3757 19.207 29.2305L12.957 22.9805C12.6639 22.6873 12.4991 22.2896 12.4991 21.875C12.4991 21.4604 12.6639 21.0627 12.957 20.7695C13.2502 20.4763 13.6479 20.3116 14.0625 20.3116C14.4771 20.3116 14.8748 20.4763 15.168 20.7695L18.75 24.3535V12.5C18.75 12.0856 18.9146 11.6882 19.2077 11.3951C19.5007 11.1021 19.8981 10.9375 20.3125 10.9375C20.7269 10.9375 21.1243 11.1021 21.4174 11.3951C21.7104 11.6882 21.875 12.0856 21.875 12.5V24.3535L25.457 20.7695C25.6022 20.6243 25.7745 20.509 25.9642 20.4304C26.1538 20.3517 26.3572 20.3113 26.5625 20.3113C26.7678 20.3113 26.9712 20.3517 27.1609 20.4304C27.3505 20.509 27.5229 20.6243 27.668 20.7695Z" fill="black"/>
</svg>
