<svg width="246" height="44" viewBox="0 0 246 44" fill="none" xmlns="http://www.w3.org/2000/svg">
<path d="M51.702 12.486H59.269C61.7837 12.5013 63.662 13.1223 64.904 14.349C66.146 15.5757 66.8513 17.4923 67.02 20.099C67.0353 20.329 67.043 20.559 67.043 20.789C67.0583 21.019 67.0583 21.2567 67.043 21.502C67.0123 22.6367 66.813 23.7483 66.445 24.837C66.077 25.9103 65.433 26.8227 64.513 27.574C63.7617 28.1873 62.949 28.5783 62.075 28.747C61.2163 28.9157 60.3117 29 59.361 29H51.702V12.486ZM59.2 15.361H55.175V26.125H59.2C59.2307 26.1403 59.2613 26.148 59.292 26.148C59.338 26.148 59.3763 26.148 59.407 26.148C59.913 26.148 60.4037 26.102 60.879 26.01C61.3697 25.9027 61.799 25.642 62.167 25.228C62.535 24.7987 62.788 24.3157 62.926 23.779C63.0793 23.2423 63.179 22.698 63.225 22.146C63.2403 21.916 63.248 21.686 63.248 21.456C63.248 21.226 63.248 20.996 63.248 20.766C63.248 20.536 63.248 20.2983 63.248 20.053C63.248 19.7923 63.2327 19.5393 63.202 19.294C63.1713 18.7573 63.0793 18.2283 62.926 17.707C62.788 17.1857 62.535 16.7257 62.167 16.327C61.799 15.913 61.3697 15.6523 60.879 15.545C60.4037 15.4377 59.913 15.384 59.407 15.384C59.3763 15.384 59.338 15.384 59.292 15.384C59.2613 15.384 59.2307 15.384 59.2 15.384V15.361ZM80.0951 29H74.0691C72.5205 29 71.2938 28.6933 70.3891 28.08C69.4845 27.4667 69.0321 26.3013 69.0321 24.584V16.879H72.2291V24.308C72.2291 25.1207 72.3825 25.665 72.6891 25.941C72.9958 26.217 73.5401 26.355 74.3221 26.355L76.8981 26.332V16.879H80.0951V29ZM88.1351 19.501H86.1801V26.401C86.3334 26.4163 86.4867 26.4317 86.6401 26.447C86.8087 26.447 86.9697 26.447 87.1231 26.447C88.1964 26.4777 89.1854 26.3933 90.0901 26.194C91.0101 25.9947 91.5314 25.205 91.6541 23.825C91.6694 23.641 91.6771 23.457 91.6771 23.273C91.6924 23.0737 91.7001 22.882 91.7001 22.698C91.6847 22.3607 91.6387 22.031 91.5621 21.709C91.4854 21.387 91.3627 21.088 91.1941 20.812C90.8567 20.1987 90.4197 19.8307 89.8831 19.708C89.3617 19.5853 88.7791 19.524 88.1351 19.524V19.501ZM86.1801 12.486V16.879H88.9401C89.8754 16.8943 90.7571 17.017 91.5851 17.247C92.4131 17.477 93.1337 17.983 93.7471 18.765C94.2531 19.409 94.6057 20.122 94.8051 20.904C95.0044 21.6707 95.0811 22.4603 95.0351 23.273C94.9584 25.0517 94.4064 26.4547 93.3791 27.482C92.3671 28.494 90.9564 29 89.1471 29H82.9831V12.486H86.1801ZM102.196 19.501H100.241V26.401C100.394 26.4163 100.547 26.4317 100.701 26.447C100.869 26.447 101.03 26.447 101.184 26.447C102.257 26.4777 103.246 26.3933 104.151 26.194C105.071 25.9947 105.592 25.205 105.715 23.825C105.73 23.641 105.738 23.457 105.738 23.273C105.753 23.0737 105.761 22.882 105.761 22.698C105.745 22.3607 105.699 22.031 105.623 21.709C105.546 21.387 105.423 21.088 105.255 20.812C104.917 20.1987 104.48 19.8307 103.944 19.708C103.422 19.5853 102.84 19.524 102.196 19.524V19.501ZM100.241 12.486V16.879H103.001C103.936 16.8943 104.818 17.017 105.646 17.247C106.474 17.477 107.194 17.983 107.808 18.765C108.314 19.409 108.666 20.122 108.866 20.904C109.065 21.6707 109.142 22.4603 109.096 23.273C109.019 25.0517 108.467 26.4547 107.44 27.482C106.428 28.494 105.017 29 103.208 29H97.0436V12.486H100.241ZM114.37 29H111.035V12.486H114.37V29ZM122.506 29C121.647 29 120.811 28.9003 119.999 28.701C119.201 28.4863 118.496 28.0493 117.883 27.39C117.392 26.8533 117.032 26.24 116.802 25.55C116.587 24.86 116.457 24.1547 116.411 23.434C116.411 23.3573 116.411 23.2807 116.411 23.204C116.411 23.1273 116.411 23.0507 116.411 22.974C116.411 22.8667 116.411 22.767 116.411 22.675C116.411 22.5677 116.418 22.4603 116.434 22.353C116.48 21.663 116.61 20.9883 116.825 20.329C117.055 19.6543 117.407 19.0563 117.883 18.535C118.496 17.8603 119.201 17.4233 119.999 17.224C120.811 17.0093 121.647 16.902 122.506 16.902L127.175 16.879V19.409H122.943C122.053 19.4243 121.34 19.5623 120.804 19.823C120.267 20.0683 119.983 20.697 119.953 21.709L127.175 21.686V24.216H119.953C119.983 25.274 120.252 25.918 120.758 26.148C121.264 26.378 121.984 26.493 122.92 26.493L127.175 26.47V29H122.506ZM145.254 15.361C143.981 15.3763 143.031 15.7213 142.402 16.396C141.773 17.0553 141.421 17.9983 141.344 19.225L150.958 19.202V22.077H141.321C141.321 22.6597 141.382 23.2193 141.505 23.756C141.643 24.2927 141.911 24.7833 142.31 25.228C142.663 25.642 143.077 25.9027 143.552 26.01C144.043 26.102 144.541 26.148 145.047 26.148C145.078 26.148 145.108 26.148 145.139 26.148C145.185 26.148 145.223 26.148 145.254 26.148L150.958 26.125V29H145.093C144.158 29 143.253 28.9157 142.379 28.747C141.52 28.5783 140.708 28.1873 139.941 27.574C139.021 26.8227 138.377 25.9103 138.009 24.837C137.641 23.7483 137.442 22.6367 137.411 21.502C137.396 21.2567 137.388 21.019 137.388 20.789C137.403 20.559 137.419 20.329 137.434 20.099C137.603 17.4923 138.308 15.5757 139.55 14.349C140.807 13.1223 142.686 12.509 145.185 12.509L150.958 12.486V15.361H145.254ZM156.818 22.951L152.31 16.879H156.036L158.635 20.536L161.303 16.879H164.983L160.498 23.02L164.914 29H161.188L158.635 25.481L156.059 29H152.356L156.818 22.951ZM172.981 26.401H176.385V29H172.038C171.21 29 170.397 28.9157 169.6 28.747C168.818 28.563 168.113 28.172 167.484 27.574C166.963 27.068 166.556 26.4777 166.265 25.803C165.974 25.113 165.79 24.4077 165.713 23.687C165.713 23.5797 165.705 23.4723 165.69 23.365C165.69 23.2423 165.69 23.1273 165.69 23.02C165.69 22.882 165.69 22.744 165.69 22.606C165.705 22.468 165.721 22.33 165.736 22.192C165.797 21.4867 165.974 20.7967 166.265 20.122C166.556 19.4473 166.963 18.857 167.484 18.351C168.113 17.753 168.818 17.362 169.6 17.178C170.397 16.994 171.21 16.902 172.038 16.902L176.385 16.879V19.501H172.981C172.935 19.5163 172.881 19.524 172.82 19.524C172.774 19.524 172.728 19.524 172.682 19.524C172.59 19.524 172.498 19.524 172.406 19.524C172.329 19.524 172.253 19.524 172.176 19.524C171.869 19.524 171.57 19.547 171.279 19.593C170.988 19.639 170.712 19.7387 170.451 19.892C169.884 20.2293 169.5 20.6817 169.301 21.249C169.117 21.8163 169.025 22.4067 169.025 23.02C169.04 23.618 169.148 24.193 169.347 24.745C169.546 25.2817 169.914 25.711 170.451 26.033C170.712 26.1863 170.988 26.286 171.279 26.332C171.57 26.378 171.869 26.4087 172.176 26.424C172.268 26.424 172.36 26.424 172.452 26.424C172.559 26.424 172.659 26.424 172.751 26.424C172.797 26.424 172.835 26.424 172.866 26.424C172.912 26.424 172.95 26.424 172.981 26.424V26.401ZM178.509 12.486H181.683V16.879H184.535C186.099 16.9097 187.326 17.2317 188.215 17.845C189.12 18.4583 189.58 19.6237 189.595 21.341V29H186.375V21.686C186.375 20.9193 186.222 20.375 185.915 20.053C185.608 19.731 185.049 19.57 184.236 19.57L181.683 19.547V29H178.509V12.486ZM192.598 16.879H199.153C199.858 16.8943 200.533 16.9787 201.177 17.132C201.836 17.27 202.427 17.5997 202.948 18.121C203.393 18.5503 203.699 19.0563 203.868 19.639C204.052 20.2217 204.144 20.8197 204.144 21.433V29H195.542C194.3 29 193.349 28.6627 192.69 27.988C192.031 27.298 191.732 26.3473 191.793 25.136C191.9 23.6793 192.414 22.7363 193.334 22.307C194.254 21.8777 195.35 21.663 196.623 21.663L200.832 21.64C200.878 20.6433 200.617 20.0223 200.05 19.777C199.498 19.5317 198.793 19.409 197.934 19.409L192.598 19.386V16.879ZM196.853 26.562H200.855V24.055H197.083C197.052 24.0703 197.022 24.078 196.991 24.078C196.96 24.078 196.93 24.078 196.899 24.078C196.47 24.0933 196.071 24.1777 195.703 24.331C195.335 24.469 195.143 24.8063 195.128 25.343C195.097 25.941 195.258 26.2937 195.611 26.401C195.979 26.5083 196.393 26.5697 196.853 26.585V26.562ZM206.944 16.879H212.97C214.565 16.8943 215.807 17.2087 216.696 17.822C217.586 18.4353 218.03 19.6083 218.03 21.341V29H214.833V21.709C214.833 20.8657 214.695 20.2983 214.419 20.007C214.143 19.7157 213.576 19.57 212.717 19.57L210.141 19.547V29H206.944V16.879ZM232.097 28.563C232.097 30.1423 231.745 31.3383 231.039 32.151C230.334 32.9637 229.161 33.37 227.52 33.37H221.241V30.909H226.968C227.612 30.8937 228.095 30.725 228.417 30.403C228.755 30.0963 228.908 29.6287 228.877 29H226.278C225.389 29 224.576 28.9463 223.84 28.839C223.104 28.7317 222.399 28.3483 221.724 27.689C221.188 27.1677 220.774 26.5543 220.482 25.849C220.206 25.1437 220.03 24.423 219.953 23.687C219.953 23.5643 219.946 23.4493 219.93 23.342C219.93 23.2193 219.93 23.1043 219.93 22.997C219.93 22.859 219.93 22.721 219.93 22.583C219.946 22.445 219.961 22.307 219.976 22.169C220.053 21.4637 220.229 20.7737 220.505 20.099C220.797 19.4243 221.203 18.834 221.724 18.328C222.353 17.73 223.058 17.3467 223.84 17.178C224.622 16.994 225.435 16.902 226.278 16.902L232.097 16.879V28.563ZM227.221 26.493H228.877V19.478C228.739 19.4933 228.601 19.501 228.463 19.501C228.325 19.501 228.187 19.4933 228.049 19.478C227.942 19.478 227.835 19.478 227.727 19.478C227.635 19.478 227.543 19.478 227.451 19.478C226.455 19.4627 225.527 19.6007 224.668 19.892C223.825 20.1833 223.365 21.0037 223.288 22.353C223.288 22.445 223.281 22.537 223.265 22.629C223.265 22.721 223.265 22.813 223.265 22.905C223.25 23.4877 223.319 24.0627 223.472 24.63C223.641 25.182 223.986 25.642 224.507 26.01C224.783 26.2093 225.082 26.3397 225.404 26.401C225.742 26.4623 226.079 26.5007 226.416 26.516C226.524 26.516 226.623 26.516 226.715 26.516C226.823 26.516 226.922 26.516 227.014 26.516C227.06 26.516 227.099 26.516 227.129 26.516C227.16 26.516 227.191 26.516 227.221 26.516V26.493ZM240.179 29C239.32 29 238.484 28.9003 237.672 28.701C236.874 28.4863 236.169 28.0493 235.556 27.39C235.065 26.8533 234.705 26.24 234.475 25.55C234.26 24.86 234.13 24.1547 234.084 23.434C234.084 23.3573 234.084 23.2807 234.084 23.204C234.084 23.1273 234.084 23.0507 234.084 22.974C234.084 22.8667 234.084 22.767 234.084 22.675C234.084 22.5677 234.091 22.4603 234.107 22.353C234.153 21.663 234.283 20.9883 234.498 20.329C234.728 19.6543 235.08 19.0563 235.556 18.535C236.169 17.8603 236.874 17.4233 237.672 17.224C238.484 17.0093 239.32 16.902 240.179 16.902L244.848 16.879V19.409H240.616C239.726 19.4243 239.013 19.5623 238.477 19.823C237.94 20.0683 237.656 20.697 237.626 21.709L244.848 21.686V24.216H237.626C237.656 25.274 237.925 25.918 238.431 26.148C238.937 26.378 239.657 26.493 240.593 26.493L244.848 26.47V29H240.179Z" fill="black"/>
<path fill-rule="evenodd" clip-rule="evenodd" d="M6.2915 39.8658V40.7066C6.2915 42.444 4.8831 43.8524 3.14575 43.8524C1.4084 43.8524 0 42.4296 0 40.6923C0 38.9391 1.42127 37.5034 3.1745 37.5034H4.19433C5.63576 37.4019 6.73811 35.7673 7.27336 34.6222C7.43002 34.287 7.48988 33.918 7.48988 33.5481C7.48988 31.8183 6.03697 30.5068 4.41488 29.9061C1.20358 28.7169 0.118048 25.7349 0 24.0671V11.9597C0.119838 3.69127 6.59491 0 10.1065 0H25.3158C33.8243 0.118121 36.6505 7.43177 37 11.0738V23.4765C37 26.5401 35.0019 28.3865 32.9016 29.4045C31.0772 30.2888 29.5101 31.9435 29.5101 33.9709V34.1074C29.5101 36.128 31.3719 37.1831 32.5812 37.553C32.8275 37.6283 33.0853 37.651 33.3429 37.651H33.8993C35.6118 37.651 37 39.0392 37 40.7517C37 42.4641 35.6118 43.8524 33.8993 43.8524H33.7045C31.8844 43.8524 30.4089 42.3769 30.4089 40.5568V39.7181C30.4089 37.5034 28.9851 36.4698 25.5231 36.4698C23.675 36.4698 21.7206 38.016 21.7206 39.7181V40.7045C21.7206 42.5245 20.2214 44 18.4013 44C16.6073 44 15.1296 42.5457 15.1296 40.7517C15.1296 38.9577 16.5839 37.5034 18.3779 37.5034H18.8745C21.3056 37.5034 22.3516 35.6806 22.7156 33.7159C23.0776 31.7616 21.2947 30.2685 19.3072 30.2685H17.0318C15.3194 30.2685 13.9312 31.6567 13.9312 33.3691C13.9312 35.0816 12.543 36.4698 10.8305 36.4698H9.43725C7.48988 36.4698 6.2915 38.984 6.2915 39.8658ZM23.1259 17.4238H29.2926V23.9359H23.1259V17.4238ZM13.6184 17.3347H7.4517V23.8468H13.6184V17.3347Z" fill="black"/>
</svg>
